<svg width="193" height="20" viewBox="0 0 193 20" fill="none" xmlns="http://www.w3.org/2000/svg">
<path d="M39.2748 0.770264H43.3024V11.6322C43.3024 12.4928 43.2189 13.2771 43.052 13.992C42.885 14.7069 42.6346 15.3524 42.3007 15.9284C41.9668 16.5045 41.5495 17.0042 41.0417 17.4345C40.5339 17.8648 39.9426 18.2257 39.2609 18.5103C38.5792 18.8018 37.814 19.017 36.9584 19.1558C36.1028 19.3015 35.1567 19.3709 34.1272 19.3709C33.0977 19.3709 32.0891 19.3015 31.2195 19.1558C30.35 19.01 29.5779 18.7949 28.8962 18.5103C28.2145 18.2188 27.6302 17.8648 27.1363 17.4345C26.6424 17.0042 26.232 16.5045 25.912 15.9284C25.592 15.3524 25.3485 14.7069 25.1955 13.992C25.0425 13.2771 24.959 12.4859 24.959 11.6322V0.770264H28.9866V11.4309C28.9866 12.236 29.084 12.937 29.2788 13.5339C29.4735 14.1308 29.7796 14.6305 30.197 15.0192C30.6144 15.4148 31.143 15.7063 31.7969 15.9076C32.4438 16.1019 33.2229 16.1991 34.1272 16.1991C35.0315 16.1991 35.8106 16.1019 36.4645 15.9076C37.1114 15.7133 37.647 15.4148 38.0644 15.0192C38.4818 14.6236 38.7879 14.1308 38.9826 13.5339C39.1774 12.937 39.2748 12.236 39.2748 11.4309V0.770264Z" fill="#1A1449"/>
<path d="M53.1784 18.9546V3.78283H46.4727V0.831421H63.9605V3.78974H57.2339V18.9546H53.1784Z" fill="#1A1449"/>
<path d="M76.6239 19.3709C75.4204 19.3709 74.3214 19.2529 73.3405 19.0239C72.3597 18.7948 71.4832 18.4755 70.7111 18.0591C69.939 17.6427 69.2781 17.1499 68.7147 16.5669C68.1512 15.9908 67.6852 15.3454 67.3234 14.6374C66.9548 13.9295 66.6835 13.173 66.5026 12.3679C66.3218 11.5628 66.2383 10.723 66.2383 9.85539C66.2383 8.98782 66.3287 8.18272 66.5165 7.37761C66.7043 6.57945 66.9826 5.82293 67.3652 5.12193C67.7478 4.42094 68.2208 3.77547 68.7912 3.19246C69.3616 2.60946 70.0364 2.1028 70.8015 1.68636C71.5667 1.26993 72.4362 0.943724 73.4031 0.707745C74.37 0.471767 75.4413 0.360718 76.6099 0.360718C77.7786 0.360718 78.9055 0.478707 79.8863 0.707745C80.8671 0.936783 81.7436 1.25605 82.5088 1.67248C83.274 2.08197 83.9418 2.58169 84.5052 3.1647C85.0687 3.74771 85.5278 4.38624 85.8964 5.09417C86.2651 5.79517 86.5364 6.55169 86.7173 7.35679C86.8981 8.16189 86.9816 9.0017 86.9816 9.86927C86.9816 10.7368 86.8912 11.5489 86.7034 12.347C86.5155 13.1452 86.2303 13.9017 85.8547 14.6027C85.4721 15.3037 84.9991 15.9492 84.4287 16.5391C83.8583 17.1291 83.1835 17.6288 82.4183 18.0452C81.6462 18.4617 80.7836 18.7879 79.8167 19.0239C78.8498 19.2598 77.7786 19.3709 76.6099 19.3709H76.6239ZM76.6239 16.1713C77.3682 16.1713 78.036 16.0949 78.6272 15.9422C79.2185 15.7896 79.7472 15.5744 80.2063 15.2968C80.6654 15.0192 81.0619 14.686 81.3888 14.2973C81.7158 13.9087 81.9871 13.4853 82.2027 13.0203C82.4114 12.5553 82.5714 12.0555 82.6688 11.5211C82.7662 10.9867 82.8148 10.4384 82.8148 9.86927C82.8148 9.30014 82.7662 8.75184 82.6688 8.21742C82.5714 7.683 82.4183 7.18328 82.2027 6.71826C81.994 6.25324 81.7227 5.82293 81.3888 5.4412C81.0619 5.05253 80.6654 4.71938 80.2063 4.44176C79.7472 4.16414 79.2185 3.94898 78.6272 3.79629C78.036 3.6436 77.3612 3.56725 76.6239 3.56725C75.8865 3.56725 75.2117 3.6436 74.6135 3.79629C74.0153 3.94898 73.4866 4.16414 73.0275 4.44176C72.5684 4.71938 72.1719 5.05253 71.845 5.4412C71.518 5.82987 71.2467 6.25324 71.038 6.71826C70.8294 7.18328 70.6694 7.683 70.572 8.21742C70.4746 8.75184 70.4189 9.30014 70.4189 9.86927C70.4189 10.4384 70.4676 10.9867 70.572 11.5211C70.6694 12.0555 70.8294 12.5553 71.038 13.0203C71.2467 13.4853 71.518 13.9156 71.845 14.2973C72.1719 14.686 72.5684 15.0192 73.0275 15.2968C73.4866 15.5744 74.0153 15.7896 74.6135 15.9422C75.2117 16.0949 75.8795 16.1713 76.6239 16.1713Z" fill="#1A1449"/>
<path d="M142.909 19.3709C141.706 19.3709 140.607 19.2529 139.626 19.0239C138.645 18.7948 137.768 18.4755 136.996 18.0591C136.224 17.6427 135.563 17.1499 135 16.5669C134.436 15.9839 133.977 15.3454 133.609 14.6374C133.24 13.9295 132.969 13.173 132.788 12.3679C132.607 11.5628 132.523 10.723 132.523 9.85539C132.523 8.98782 132.614 8.18272 132.802 7.37761C132.989 6.57945 133.268 5.82293 133.65 5.12193C134.026 4.42094 134.506 3.77547 135.076 3.19246C135.647 2.60946 136.322 2.1028 137.087 1.68636C137.859 1.26993 138.721 0.943724 139.688 0.707745C140.655 0.471767 141.726 0.360718 142.902 0.360718C144.078 0.360718 145.198 0.478707 146.178 0.707745C147.159 0.936783 148.036 1.25605 148.801 1.67248C149.573 2.08197 150.234 2.58169 150.797 3.1647C151.361 3.74771 151.82 4.38624 152.189 5.09417C152.557 5.80211 152.829 6.55169 153.009 7.35679C153.19 8.16189 153.274 9.0017 153.274 9.86927C153.274 10.7368 153.183 11.5489 152.995 12.347C152.808 13.1452 152.529 13.9017 152.147 14.6027C151.771 15.3037 151.291 15.9492 150.721 16.5391C150.15 17.1291 149.476 17.6288 148.71 18.0452C147.945 18.4617 147.076 18.7879 146.109 19.0239C145.142 19.2598 144.071 19.3709 142.902 19.3709H142.909ZM142.909 16.1713C143.653 16.1713 144.321 16.0949 144.912 15.9422C145.504 15.7896 146.032 15.5744 146.491 15.2968C146.951 15.0192 147.347 14.686 147.674 14.2973C148.001 13.9087 148.272 13.4853 148.488 13.0203C148.703 12.5553 148.857 12.0555 148.954 11.5211C149.051 10.9867 149.1 10.4384 149.1 9.86927C149.1 9.30014 149.051 8.75184 148.954 8.21742C148.857 7.683 148.703 7.18328 148.488 6.71826C148.272 6.25324 148.008 5.82293 147.674 5.4412C147.34 5.05947 146.951 4.71938 146.491 4.44176C146.032 4.16414 145.504 3.94898 144.912 3.79629C144.321 3.6436 143.646 3.56725 142.909 3.56725C142.172 3.56725 141.497 3.6436 140.899 3.79629C140.3 3.94898 139.772 4.16414 139.313 4.44176C138.854 4.71938 138.457 5.05253 138.13 5.4412C137.803 5.82987 137.532 6.25324 137.323 6.71826C137.115 7.18328 136.955 7.683 136.857 8.21742C136.76 8.75184 136.704 9.30014 136.704 9.86927C136.704 10.4384 136.753 10.9867 136.857 11.5211C136.955 12.0555 137.115 12.5553 137.323 13.0203C137.532 13.4853 137.803 13.9156 138.13 14.2973C138.457 14.6791 138.854 15.0192 139.313 15.2968C139.772 15.5744 140.3 15.7896 140.899 15.9422C141.497 16.0949 142.165 16.1713 142.909 16.1713Z" fill="#1A1449"/>
<path d="M156.509 15.0677C156.912 15.2065 157.378 15.3453 157.907 15.491C158.436 15.6368 159.006 15.7617 159.611 15.8797C160.217 15.9977 160.85 16.0879 161.503 16.1643C162.157 16.2406 162.811 16.2753 163.465 16.2753C164.397 16.2753 165.204 16.2198 165.893 16.1157C166.581 16.0116 167.152 15.8519 167.604 15.6437C168.056 15.4424 168.397 15.1926 168.62 14.8941C168.842 14.5957 168.954 14.2625 168.954 13.8878C168.954 13.6934 168.912 13.513 168.835 13.3464C168.752 13.1798 168.627 13.0271 168.46 12.8883C168.286 12.7495 168.07 12.6176 167.799 12.4927C167.534 12.3678 167.214 12.2498 166.839 12.1387C166.463 12.0277 166.039 11.9097 165.559 11.7987C165.079 11.6876 164.536 11.5696 163.938 11.4447C163.131 11.2851 162.394 11.1046 161.712 10.9103C161.03 10.7159 160.425 10.4869 159.883 10.237C159.34 9.98717 158.86 9.70955 158.45 9.4111C158.039 9.11266 157.691 8.77952 157.413 8.41861C157.135 8.0577 156.926 7.66903 156.787 7.24565C156.648 6.82228 156.578 6.3642 156.578 5.87143C156.578 5.34394 156.648 4.84422 156.794 4.36533C156.94 3.88643 157.163 3.44917 157.469 3.03968C157.775 2.63019 158.164 2.26234 158.638 1.93613C159.111 1.60993 159.674 1.32537 160.335 1.09633C160.996 0.867291 161.74 0.686836 162.596 0.561907C163.444 0.436977 164.397 0.374512 165.448 0.374512C166.164 0.374512 166.839 0.402274 167.472 0.464739C168.105 0.527204 168.703 0.60355 169.253 0.707658C169.802 0.811766 170.317 0.929756 170.776 1.06857C171.235 1.20738 171.653 1.35313 172.021 1.50582V4.60131C171.604 4.46943 171.152 4.33756 170.658 4.20569C170.164 4.07382 169.642 3.95583 169.086 3.85173C168.529 3.74762 167.945 3.66433 167.333 3.59493C166.721 3.53246 166.095 3.49776 165.448 3.49776C164.627 3.49776 163.917 3.54634 163.326 3.65045C162.735 3.75456 162.241 3.89337 161.851 4.0877C161.462 4.2751 161.177 4.51108 160.989 4.78176C160.801 5.05938 160.71 5.36477 160.71 5.70485C160.71 5.89919 160.752 6.07964 160.836 6.24622C160.919 6.41279 161.051 6.56548 161.232 6.70429C161.413 6.8431 161.636 6.97497 161.907 7.0999C162.178 7.22483 162.505 7.34282 162.881 7.45387C163.256 7.57186 163.688 7.68291 164.175 7.79396C164.662 7.90501 165.204 8.023 165.802 8.14793C166.609 8.30756 167.354 8.48107 168.028 8.67541C168.703 8.86974 169.315 9.0849 169.858 9.32782C170.4 9.57074 170.88 9.83448 171.291 10.1329C171.701 10.4244 172.049 10.7576 172.327 11.1185C172.606 11.4794 172.814 11.8819 172.953 12.3123C173.092 12.7426 173.162 13.2284 173.162 13.7489C173.162 14.2695 173.079 14.797 172.905 15.2828C172.738 15.7686 172.48 16.2198 172.132 16.6362C171.785 17.0526 171.353 17.4274 170.832 17.7675C170.31 18.1076 169.698 18.3922 168.988 18.6351C168.279 18.878 167.486 19.0585 166.595 19.1903C165.705 19.3222 164.717 19.3847 163.632 19.3847C162.881 19.3847 162.15 19.35 161.455 19.2806C160.759 19.2112 160.105 19.1279 159.493 19.0168C158.881 18.9058 158.324 18.7808 157.824 18.642C157.316 18.5032 156.878 18.3575 156.502 18.2048V15.0885L156.509 15.0677Z" fill="#1A1449"/>
<path d="M182.217 18.9546V3.78283H175.512V0.831421H193V3.78974H186.273V18.9546H182.217Z" fill="#1A1449"/>
<rect x="90.8516" y="12.0042" width="6.95135" height="6.95135" fill="#E94B5A"/>
<path d="M90.8516 0.831909H97.8029L109.057 18.9551H102.103L90.8516 0.831909Z" fill="#E94B5A"/>
<rect width="6.95135" height="6.95135" transform="matrix(-1 0 0 1 128.834 12.0044)" fill="#E94B5A"/>
<path d="M128.834 0.832153H121.883L110.628 18.9553H117.583L128.834 0.832153Z" fill="#E94B5A"/>
<path d="M18.7589 18.9546L16.7963 15.2028H6.42864L4.49381 18.9546H0L9.54241 0.831421H13.7588L23.3012 18.9477H18.7589V18.9546ZM13.0515 7.56802C12.8087 7.09127 12.573 6.62144 12.3372 6.15851C12.1014 5.69559 11.8656 5.21885 11.6229 4.7421C11.3802 5.22575 11.1444 5.69559 10.9086 6.17233C10.6728 6.64217 10.4301 7.11891 10.1943 7.59565L7.94045 12.0798H15.3192L13.0584 7.57493L13.0515 7.56802Z" fill="#1A1449"/>
</svg>
